<svg xmlns="http://www.w3.org/2000/svg" viewBox="-35.0 20.3 509.2 111.7" role="img" aria-label="BillEvents" xmlns:c2pa="http://c2pa.org/manifest"><metadata><c2pa:manifest>AAAWgmp1bWIAAAAeanVtZGMycGEAEQAQgAAAqgA4m3EDYzJwYQAAABZcanVtYgAAAEdqdW1kYzJtYQARABCAAACqADibcQN1cm46YzJwYTo0MzlhMmY1MC1hYTU0LTQ1YWEtYWFlZi0zNzJhZmI5YjdiZjUAAAADl2p1bWIAAAApanVtZGMyYXMAEQAQgAAAqgA4m3EDYzJwYS5hc3NlcnRpb25zAAAAALxqdW1iAAAARGp1bWRjYm9yABEAEIAAAKoAOJtxE2MycGEuaW5ncmVkaWVudC52MwAAAAAYYzJzaDOW/cOMNesV6BjjayL8ciwAAABwY2JvcqNpZGM6Zm9ybWF0bWltYWdlL3N2Zyt4bWxqaW5zdGFuY2VJRHgseG1wOmlpZDpmNjU2NzhiYy1jMTk5LTRmOGUtOWFiZS1lMzExYTIxZTk2ZDNscmVsYXRpb25zaGlwaHBhcmVudE9mAAAB4mp1bWIAAABBanVtZGNib3IAEQAQgAAAqgA4m3ETYzJwYS5hY3Rpb25zLnYyAAAAABhjMnNoStu7EOFldK6SqX+HS3+pxgAAAZljYm9yomdhY3Rpb25zgqJmYWN0aW9ua2MycGEub3BlbmVkanBhcmFtZXRlcnOha2luZ3JlZGllbnRzgaJjdXJseC1zZWxmI2p1bWJmPWMycGEuYXNzZXJ0aW9ucy9jMnBhLmluZ3JlZGllbnQudjNkaGFzaFgggqaMvdFNzW/K9wvINWJwi/cwAWBRD7eCspO1iGeoQZikZmFjdGlvbngdY29tLmFudGhyb3BpYy5jbGF1ZGUucHJvdmlkZWRqcGFyYW1ldGVyc6F4H2NvbS5hbnRocm9waWMub3JpZ2luLWNvbmZpZGVuY2VndW5rbm93bmtkZXNjcmlwdGlvbnhmQ2xhdWRlIHByb3ZpZGVkIHRoaXMgZmlsZSBhdCB0aGUgcmVxdWVzdCBvZiBhIHVzZXIgYW5kIG1heSBoYXZlIGNyZWF0ZWQgb3IgbW9kaWZpZWQgdGhlIGZpbGUgY29udGVudHMubXNvZnR3YXJlQWdlbnShZG5hbWVmQ2xhdWRlcmFsbEFjdGlvbnNJbmNsdWRlZPUAAADIanVtYgAAAEBqdW1kY2JvcgARABCAAACqADibcRNjMnBhLmhhc2guZGF0YQAAAAAYYzJzaGKKCrCcDOsAc2FxpC5qCqcAAACAY2JvcqVjYWxnZnNoYTI1NmNwYWRNAAAAAAAAAAAAAAAAAGRoYXNoWCBnFoUBDuDUWZGNu/V3GIeuOOWRHSaiA+yuj4w5BxD27mRuYW1lbmp1bWJmIG1hbmlmZXN0amV4Y2x1c2lvbnOBomVzdGFydBirZmxlbmd0aBkeBAAAAj5qdW1iAAAAJ2p1bWRjMmNsABEAEIAAAKoAOJtxA2MycGEuY2xhaW0udjIAAAACD2Nib3KlY2FsZ2ZzaGEyNTZpc2lnbmF0dXJleE1zZWxmI2p1bWJmPS9jMnBhL3VybjpjMnBhOjQzOWEyZjUwLWFhNTQtNDVhYS1hYWVmLTM3MmFmYjliN2JmNS9jMnBhLnNpZ25hdHVyZWppbnN0YW5jZUlEeCx4bXA6aWlkOmM4YzZlYjEyLWYwZDYtNDlhMy04MTFhLTNjNGU0NzU4NGQwMHJjcmVhdGVkX2Fzc2VydGlvbnODomN1cmx4LXNlbGYjanVtYmY9YzJwYS5hc3NlcnRpb25zL2MycGEuaW5ncmVkaWVudC52M2RoYXNoWCCCpoy90U3Nb8r3C8g1YnCL9zABYFEPt4Kyk7WIZ6hBmKJjdXJseCpzZWxmI2p1bWJmPWMycGEuYXNzZXJ0aW9ucy9jMnBhLmFjdGlvbnMudjJkaGFzaFggSM5uPNSUX/Nx1PH1sEqJg3wbsolvSF8UAZhmcaaJl/GiY3VybHgpc2VsZiNqdW1iZj1jMnBhLmFzc2VydGlvbnMvYzJwYS5oYXNoLmRhdGFkaGFzaFggILE+TaZHs0r871OdmvowK9G2qH+zb2MmrsvDvwjJfvd0Y2xhaW1fZ2VuZXJhdG9yX2luZm+jZG5hbWVvQW50aHJvcGljIEZpbGVzZ3ZlcnNpb25lMS4wLjBrc3BlY1ZlcnNpb25lMi40LjAAABA4anVtYgAAAChqdW1kYzJjcwARABCAAACqADibcQNjMnBhLnNpZ25hdHVyZQAAABAIY2JvctKEWQISogEmGCFZAgowggIGMIIBjaADAgECAhRA5aAK7sI50L64g/oGQgU9Z1UTADAKBggqhkjOPQQDAzBJMRcwFQYDVQQKEw5BbnRocm9waWMsIFBCQzEuMCwGA1UEAxMlQW50aHJvcGljIENvbnRlbnQgQ3JlZGVudGlhbHMgUm9vdCBDQTAeFw0yNjA4MDcxODQzNTZaFw0yODA4MDYxOTQzNTZaMEQxFzAVBgNVBAoTDkFudGhyb3BpYywgUEJDMSkwJwYDVQQDEyBBbnRocm9waWMgQ2xhdWRlIENvbnRlbnQgU2lnbmluZzBZMBMGByqGSM49AgEGCCqGSM49AwEHA0IABJh6CmvLUBgFFNU0vUKlOVtE6djd17L5SuwX0LemFisBM3dkd/3cyjxFA3Qo5S46fX0/ihY0VZ7mfb9KF703t5OjWDBWMA4GA1UdDwEB/wQEAwIHgDAVBgNVHSUEDjAMBgorBgEEAYPoXgIBMAwGA1UdEwEB/wQCMAAwHwYDVR0jBBgwFoAUzlHiBIFOZFsj+OPEz5o+nMHXXMIwCgYIKoZIzj0EAwMDZwAwZAIwMXMdFJ4BetLLVY7ORuE9noqbbAZOZn/aArXyTwFAZfKrPzxF2vPoJNf1+UCdg1XGAjBwX1zd9WGqYkqmL5SFqw1QySjr1zJfpJM9+1rdDwSPLMOPOjKuiXjoU/pUUeG9RwmhY3BhZFkNngAAAAAAAAAAAAAAAAAAAAAAAAAAAAAAAAAAAAAAAAAAAAAAAAAAAAAAAAAAAAAAAAAAAAAAAAAAAAAAAAAAAAAAAAAAAAAAAAAAAAAAAAAAAAAAAAAAAAAAAAAAAAAAAAAAAAAAAAAAAAAAAAAAAAAAAAAAAAAAAAAAAAAAAAAAAAAAAAAAAAAAAAAAAAAAAAAAAAAAAAAAAAAAAAAAAAAAAAAAAAAAAAAAAAAAAAAAAAAAAAAAAAAAAAAAAAAAAAAAAAAAAAAAAAAAAAAAAAAAAAAAAAAAAAAAAAAAAAAAAAAAAAAAAAAAAAAAAAAAAAAAAAAAAAAAAAAAAAAAAAAAAAAAAAAAAAAAAAAAAAAAAAAAAAAAAAAAAAAAAAAAAAAAAAAAAAAAAAAAAAAAAAAAAAAAAAAAAAAAAAAAAAAAAAAAAAAAAAAAAAAAAAAAAAAAAAAAAAAAAAAAAAAAAAAAAAAAAAAAAAAAAAAAAAAAAAAAAAAAAAAAAAAAAAAAAAAAAAAAAAAAAAAAAAAAAAAAAAAAAAAAAAAAAAAAAAAAAAAAAAAAAAAAAAAAAAAAAAAAAAAAAAAAAAAAAAAAAAAAAAAAAAAAAAAAAAAAAAAAAAAAAAAAAAAAAAAAAAAAAAAAAAAAAAAAAAAAAAAAAAAAAAAAAAAAAAAAAAAAAAAAAAAAAAAAAAAAAAAAAAAAAAAAAAAAAAAAAAAAAAAAAAAAAAAAAAAAAAAAAAAAAAAAAAAAAAAAAAAAAAAAAAAAAAAAAAAAAAAAAAAAAAAAAAAAAAAAAAAAAAAAAAAAAAAAAAAAAAAAAAAAAAAAAAAAAAAAAAAAAAAAAAAAAAAAAAAAAAAAAAAAAAAAAAAAAAAAAAAAAAAAAAAAAAAAAAAAAAAAAAAAAAAAAAAAAAAAAAAAAAAAAAAAAAAAAAAAAAAAAAAAAAAAAAAAAAAAAAAAAAAAAAAAAAAAAAAAAAAAAAAAAAAAAAAAAAAAAAAAAAAAAAAAAAAAAAAAAAAAAAAAAAAAAAAAAAAAAAAAAAAAAAAAAAAAAAAAAAAAAAAAAAAAAAAAAAAAAAAAAAAAAAAAAAAAAAAAAAAAAAAAAAAAAAAAAAAAAAAAAAAAAAAAAAAAAAAAAAAAAAAAAAAAAAAAAAAAAAAAAAAAAAAAAAAAAAAAAAAAAAAAAAAAAAAAAAAAAAAAAAAAAAAAAAAAAAAAAAAAAAAAAAAAAAAAAAAAAAAAAAAAAAAAAAAAAAAAAAAAAAAAAAAAAAAAAAAAAAAAAAAAAAAAAAAAAAAAAAAAAAAAAAAAAAAAAAAAAAAAAAAAAAAAAAAAAAAAAAAAAAAAAAAAAAAAAAAAAAAAAAAAAAAAAAAAAAAAAAAAAAAAAAAAAAAAAAAAAAAAAAAAAAAAAAAAAAAAAAAAAAAAAAAAAAAAAAAAAAAAAAAAAAAAAAAAAAAAAAAAAAAAAAAAAAAAAAAAAAAAAAAAAAAAAAAAAAAAAAAAAAAAAAAAAAAAAAAAAAAAAAAAAAAAAAAAAAAAAAAAAAAAAAAAAAAAAAAAAAAAAAAAAAAAAAAAAAAAAAAAAAAAAAAAAAAAAAAAAAAAAAAAAAAAAAAAAAAAAAAAAAAAAAAAAAAAAAAAAAAAAAAAAAAAAAAAAAAAAAAAAAAAAAAAAAAAAAAAAAAAAAAAAAAAAAAAAAAAAAAAAAAAAAAAAAAAAAAAAAAAAAAAAAAAAAAAAAAAAAAAAAAAAAAAAAAAAAAAAAAAAAAAAAAAAAAAAAAAAAAAAAAAAAAAAAAAAAAAAAAAAAAAAAAAAAAAAAAAAAAAAAAAAAAAAAAAAAAAAAAAAAAAAAAAAAAAAAAAAAAAAAAAAAAAAAAAAAAAAAAAAAAAAAAAAAAAAAAAAAAAAAAAAAAAAAAAAAAAAAAAAAAAAAAAAAAAAAAAAAAAAAAAAAAAAAAAAAAAAAAAAAAAAAAAAAAAAAAAAAAAAAAAAAAAAAAAAAAAAAAAAAAAAAAAAAAAAAAAAAAAAAAAAAAAAAAAAAAAAAAAAAAAAAAAAAAAAAAAAAAAAAAAAAAAAAAAAAAAAAAAAAAAAAAAAAAAAAAAAAAAAAAAAAAAAAAAAAAAAAAAAAAAAAAAAAAAAAAAAAAAAAAAAAAAAAAAAAAAAAAAAAAAAAAAAAAAAAAAAAAAAAAAAAAAAAAAAAAAAAAAAAAAAAAAAAAAAAAAAAAAAAAAAAAAAAAAAAAAAAAAAAAAAAAAAAAAAAAAAAAAAAAAAAAAAAAAAAAAAAAAAAAAAAAAAAAAAAAAAAAAAAAAAAAAAAAAAAAAAAAAAAAAAAAAAAAAAAAAAAAAAAAAAAAAAAAAAAAAAAAAAAAAAAAAAAAAAAAAAAAAAAAAAAAAAAAAAAAAAAAAAAAAAAAAAAAAAAAAAAAAAAAAAAAAAAAAAAAAAAAAAAAAAAAAAAAAAAAAAAAAAAAAAAAAAAAAAAAAAAAAAAAAAAAAAAAAAAAAAAAAAAAAAAAAAAAAAAAAAAAAAAAAAAAAAAAAAAAAAAAAAAAAAAAAAAAAAAAAAAAAAAAAAAAAAAAAAAAAAAAAAAAAAAAAAAAAAAAAAAAAAAAAAAAAAAAAAAAAAAAAAAAAAAAAAAAAAAAAAAAAAAAAAAAAAAAAAAAAAAAAAAAAAAAAAAAAAAAAAAAAAAAAAAAAAAAAAAAAAAAAAAAAAAAAAAAAAAAAAAAAAAAAAAAAAAAAAAAAAAAAAAAAAAAAAAAAAAAAAAAAAAAAAAAAAAAAAAAAAAAAAAAAAAAAAAAAAAAAAAAAAAAAAAAAAAAAAAAAAAAAAAAAAAAAAAAAAAAAAAAAAAAAAAAAAAAAAAAAAAAAAAAAAAAAAAAAAAAAAAAAAAAAAAAAAAAAAAAAAAAAAAAAAAAAAAAAAAAAAAAAAAAAAAAAAAAAAAAAAAAAAAAAAAAAAAAAAAAAAAAAAAAAAAAAAAAAAAAAAAAAAAAAAAAAAAAAAAAAAAAAAAAAAAAAAAAAAAAAAAAAAAAAAAAAAAAAAAAAAAAAAAAAAAAAAAAAAAAAAAAAAAAAAAAAAAAAAAAAAAAAAAAAAAAAAAAAAAAAAAAAAAAAAAAAAAAAAAAAAAAAAAAAAAAAAAAAAAAAAAAAAAAAAAAAAAAAAAAAAAAAAAAAAAAAAAAAAAAAAAAAAAAAAAAAAAAAAAAAAAAAAAAAAAAAAAAAAAAAAAAAAAAAAAAAAAAAAAAAAAAAAAAAAAAAAAAAAAAAAAAAAAAAAAAAAAAAAAAAAAAAAAAAAAAAAAAAAAAAAAAAAAAAAAAAAAAAAAAAAAAAAAAAAAAAAAAAAAAAAAAAAAAAAAAAAAAAAAAAAAAAAAAAAAAAAAAAAAAAAAAAAAAAAAAAAAAAAAAAAAAAAAAAAAAAAAAAAAAAAAAAAAAAAAAAAAAAAAAAAAAAAAAAAAAAAAAAAAAAAAAAAAAAAAAAAAAAAAAAAAAAAAAAAAAAAAAAAAAAAAAAAAAAAAAAAAAAAAAAAAAAAAAAAAAAAAAAAAAAAAAAAAAAAAAAAAAAAAAAAAAAAAAAAAAAAAAAAAAAAAAAAAAAAAAAAAAAAAAAAAAAAAAAAAAAAAAAAAAAAAAAAAAAAAAAAAAAAAAAAAAAAAAAAAAAAAAAAAAAAAAAAAAAAAAAAAAAAAAAAAAAAAAAAAAAAAAAAAAAAAAAAAAAAAAAAAAAAAAAAAAAAAAAAAAAAAAAAAAAAAAAAAAAAAAAAAAAAAAAAAAAAAAAAAAAAAAAAAAAAAAAAAAAAAAAAAAAAAAAAAAAAAAAAAAAAAAAAAAAAAAAAAAAAAAAAAAAAAAAAAAAAAAAAAAAAAAAAAAAAAAAAAAAAAAAAAAAAAAAAAAAAAAAAAAAAAAAAAAAAAAAAAAAAAAAAAAAAAAAAAAAAAAAAAAAAAAAAAAAAAAAAAAAAAAAAAAAAAAAAAAAAAAAAAAAAAAAAAAAAAAAAAAAAAAAAAAAAAAAAAAAAAAAAAAAAAAAAAAAAAAAAAAAAAAAAAAAAAAAAAAAAAAAAAAAAAAAAAAAAAAAAAAAAAAAAAAAAAAAAAAAAAAAAAAAAAAAAAAAAAAAAAAAAAAAAAAAAAAAAAAAAAAAAAAAAAAAAAAAAAAAAAAAAAAAAAAAAAAAAAAAAAAAAAAAAAAAAAAAAAAAAAAAAAAAAAAAAAAAAAAAAAAAAAAAAAAAAAAAAAAAAAAAAAAAAAAAAAAAAAAAAAAAAAAAAAAAAAAAAAAAAAAAAAAAAAAAAAAAAAAAAAAAAAAAAAAAAAAAAAAAAAAAAAAAAAAAAAAAAAAAAAAAAAAAAAAAAAAAAAAAAAAAAAAAAAAAAAAAAAAAAAAAAAAAAAAAAAAAAAAAAAAAAAAAAAAAAAAAAAAAAAAAAAAAAAAAAAAAAAAAAAAAAAAAAAAAAAAAAAAAAAAAAAAAAAAAAAAAAAAAAAAAAAAAAAAAAAAAAAAAAAAAAAAAAAAAAAAAAAAAAAAAAAAAAAAAAAAAAAAAAAAAAAAAAAAAAAAAAAAAAAAAAAAAAAAAAAAAAAAAAAAAAAAAAAAAAAAAAAAAAAAAAAAAAAAAAAAAAAAAAAAAAAAAAAAAAAAAAAAAAAAAAAAAAAAAAAAAAAAAAAAAAAAAAPZYQF/iEzdNi+6rW1CU5RvCXmSRdMY8slLJlCFKQmVlvJz4/D/bMEqqFjkoSnpzISQQupaQBhPkRr+igmcXrFTNO3Q=</c2pa:manifest></metadata><path fill="#37D8DB" d="M0.8 87.5 L1.0 87.5 L1.7 87.4 L1.9 87.4 L2.5 87.4 L2.8 87.4 L3.4 87.3 L3.7 87.3 L4.3 87.2 L4.5 87.1 L5.1 87.0 L5.4 87.0 L6.0 86.8 L6.2 86.8 L6.8 86.6 L7.0 86.6 L7.6 86.4 L7.9 86.3 L8.5 86.2 L8.7 86.1 L9.3 85.9 L9.5 85.8 L10.1 85.6 L10.2 85.5 L10.8 85.3 L11.0 85.2 L11.6 85.0 L11.8 84.9 L12.3 84.6 L12.5 84.5 L13.1 84.2 L13.3 84.1 L13.8 83.8 L14.0 83.8 L14.5 83.4 L14.7 83.4 L15.2 83.0 L15.4 82.9 L15.9 82.6 L16.1 82.5 L16.6 82.1 L16.7 82.1 L17.3 81.7 L17.4 81.6 L17.9 81.2 L18.1 81.1 L18.6 80.7 L18.7 80.6 L19.2 80.2 L19.3 80.1 L19.9 79.7 L20.0 79.6 L20.5 79.2 L20.6 79.1 L21.1 78.7 L21.2 78.6 L21.7 78.1 L21.8 78.1 L22.3 77.6 L22.4 77.5 L22.9 77.1 L22.9 77.0 L23.4 76.5 L23.5 76.4 L24.0 75.9 L24.1 75.9 L24.6 75.4 L24.6 75.3 L25.1 74.8 L25.2 74.7 L25.7 74.2 L25.7 74.1 L26.2 73.6 L26.3 73.6 L26.8 73.0 L26.8 73.0 L27.3 72.4 L27.4 72.4 L27.9 71.8 L27.9 71.8 L28.4 71.2 L28.4 71.2 L28.9 70.6 L28.9 70.6 L29.4 70.0 L29.5 69.9 L30.0 69.4 L30.0 69.3 L30.5 68.7 L30.5 68.7 L31.0 68.1 L31.0 68.1 L31.5 67.5 L31.5 67.5 L32.0 66.9 L32.0 66.8 L32.5 66.2 L32.5 66.2 L33.0 65.6 L33.0 65.6 L33.5 65.0 L33.5 65.0 L34.0 64.3 L34.0 64.3 L34.5 63.7 L34.5 63.7 L35.0 63.1 L35.5 62.4 L36.0 61.8 L36.4 61.2 L36.9 60.5 L37.4 59.9 L37.9 59.3 L38.4 58.7 L38.9 58.1 L39.4 57.5 L39.8 56.8 L40.3 56.2 L40.8 55.6 L41.3 55.0 L41.8 54.4 L42.3 53.9 L42.8 53.3 L43.2 52.7 L43.7 52.1 L44.2 51.6 L44.7 51.0 L45.2 50.5 L45.7 49.9 L46.2 49.4 L46.7 48.9 L47.1 48.4 L47.6 47.8 L48.1 47.4 L48.6 46.9 L49.1 46.4 L49.6 45.9 L50.1 45.5 L50.6 45.0 L51.1 44.6 L51.6 44.2 L52.1 43.8 L52.6 43.4 L53.1 43.0 L53.6 42.6 L54.1 42.2 L54.6 41.9 L55.1 41.6 L55.6 41.2 L56.1 40.9 L56.6 40.6 L57.1 40.3 L57.6 40.1 L58.2 39.8 L58.7 39.6 L59.2 39.3 L59.7 39.1 L60.2 38.9 L60.7 38.7 L61.3 38.6 L61.8 38.4 L62.3 38.2 L62.9 38.1 L63.4 38.0 L64.0 37.9 L64.5 37.8 L65.1 37.7 L65.6 37.6 L66.2 37.6 L66.8 37.5 L67.4 37.5 L68.1 37.5 L73.3 37.4 L80.8 22.3 L67.9 22.5 L67.1 22.5 L66.9 22.5 L66.1 22.5 L65.9 22.6 L65.1 22.6 L64.9 22.6 L64.2 22.7 L64.0 22.7 L63.2 22.8 L63.0 22.8 L62.2 22.9 L62.0 23.0 L61.3 23.1 L61.1 23.1 L60.4 23.3 L60.2 23.3 L59.4 23.5 L59.2 23.5 L58.5 23.7 L58.3 23.8 L57.6 24.0 L57.4 24.0 L56.7 24.3 L56.5 24.3 L55.8 24.6 L55.7 24.6 L55.0 24.9 L54.8 24.9 L54.1 25.2 L54.0 25.3 L53.3 25.6 L53.1 25.6 L52.5 25.9 L52.3 26.0 L51.6 26.3 L51.5 26.4 L50.8 26.7 L50.7 26.8 L50.0 27.1 L49.9 27.2 L49.3 27.6 L49.1 27.6 L48.5 28.0 L48.4 28.1 L47.7 28.5 L47.6 28.6 L47.0 29.0 L46.9 29.0 L46.2 29.5 L46.1 29.5 L45.5 30.0 L45.4 30.0 L44.8 30.5 L44.7 30.5 L44.1 31.0 L44.0 31.1 L43.4 31.5 L43.3 31.6 L42.7 32.1 L42.6 32.1 L42.0 32.6 L42.0 32.7 L41.4 33.2 L41.3 33.2 L40.7 33.7 L40.6 33.8 L40.1 34.3 L40.0 34.4 L39.4 34.9 L39.4 35.0 L38.8 35.5 L38.7 35.6 L38.2 36.1 L38.1 36.2 L37.6 36.7 L37.5 36.8 L37.0 37.3 L36.9 37.4 L36.4 37.9 L36.3 38.0 L35.8 38.5 L35.7 38.6 L35.2 39.2 L35.2 39.2 L34.6 39.8 L34.6 39.8 L34.0 40.4 L34.0 40.5 L33.5 41.1 L33.4 41.1 L32.9 41.7 L32.9 41.7 L32.4 42.3 L32.3 42.4 L31.8 43.0 L31.8 43.0 L31.3 43.6 L31.2 43.6 L30.7 44.3 L30.7 44.3 L30.2 44.9 L30.2 44.9 L29.7 45.6 L29.7 45.6 L29.2 46.2 L29.1 46.2 L28.6 46.8 L28.6 46.9 L28.1 47.5 L28.1 47.5 L27.6 48.1 L27.6 48.2 L27.1 48.8 L27.1 48.8 L26.6 49.4 L26.6 49.4 L26.1 50.1 L26.1 50.1 L25.6 50.7 L25.6 50.7 L25.1 51.3 L24.6 52.0 L24.1 52.6 L23.6 53.2 L23.1 53.8 L22.7 54.5 L22.2 55.1 L21.7 55.7 L21.2 56.3 L20.8 56.9 L20.3 57.5 L19.8 58.1 L19.4 58.6 L18.9 59.2 L18.4 59.8 L18.0 60.3 L17.5 60.8 L17.1 61.4 L16.6 61.9 L16.1 62.4 L15.7 62.9 L15.2 63.4 L14.8 63.9 L14.3 64.4 L13.9 64.8 L13.4 65.3 L13.0 65.7 L12.6 66.2 L12.1 66.6 L11.7 67.0 L11.3 67.4 L10.8 67.7 L10.4 68.1 L10.0 68.4 L9.5 68.8 L9.1 69.1 L8.7 69.4 L8.3 69.7 L7.9 69.9 L7.5 70.2 L7.1 70.4 L6.7 70.7 L6.3 70.9 L5.9 71.1 L5.5 71.3 L5.1 71.4 L4.7 71.6 L4.3 71.7 L3.9 71.9 L3.5 72.0 L3.1 72.1 L2.8 72.2 L2.4 72.3 L2.0 72.3 L1.6 72.4 L1.2 72.4 L0.8 72.5 L0.4 72.5 L-0.1 72.5 L-6.3 72.6 L-13.9 87.7 L0.1 87.5 L0.8 87.5 Z"/><path fill="#3364AA" d="M0.8 108.5 L1.0 108.5 L1.7 108.4 L1.9 108.4 L2.5 108.4 L2.8 108.4 L3.4 108.3 L3.7 108.3 L4.3 108.2 L4.5 108.1 L5.1 108.0 L5.4 108.0 L6.0 107.8 L6.2 107.8 L6.8 107.6 L7.0 107.6 L7.6 107.4 L7.9 107.3 L8.5 107.2 L8.7 107.1 L9.3 106.9 L9.5 106.8 L10.1 106.6 L10.2 106.5 L10.8 106.3 L11.0 106.2 L11.6 106.0 L11.8 105.9 L12.3 105.6 L12.5 105.5 L13.1 105.2 L13.3 105.1 L13.8 104.8 L14.0 104.8 L14.5 104.4 L14.7 104.4 L15.2 104.0 L15.4 103.9 L15.9 103.6 L16.1 103.5 L16.6 103.1 L16.7 103.1 L17.3 102.7 L17.4 102.6 L17.9 102.2 L18.1 102.1 L18.6 101.7 L18.7 101.6 L19.2 101.2 L19.3 101.1 L19.9 100.7 L20.0 100.6 L20.5 100.2 L20.6 100.1 L21.1 99.7 L21.2 99.6 L21.7 99.1 L21.8 99.1 L22.3 98.6 L22.4 98.5 L22.9 98.1 L22.9 98.0 L23.4 97.5 L23.5 97.4 L24.0 96.9 L24.1 96.9 L24.6 96.4 L24.6 96.3 L25.1 95.8 L25.2 95.7 L25.7 95.2 L25.7 95.1 L26.2 94.6 L26.3 94.6 L26.8 94.0 L26.8 94.0 L27.3 93.4 L27.4 93.4 L27.9 92.8 L27.9 92.8 L28.4 92.2 L28.4 92.2 L28.9 91.6 L28.9 91.6 L29.4 91.0 L29.5 90.9 L30.0 90.4 L30.0 90.3 L30.5 89.7 L30.5 89.7 L31.0 89.1 L31.0 89.1 L31.5 88.5 L31.5 88.5 L32.0 87.9 L32.0 87.8 L32.5 87.2 L32.5 87.2 L33.0 86.6 L33.0 86.6 L33.5 86.0 L33.5 86.0 L34.0 85.3 L34.0 85.3 L34.5 84.7 L34.5 84.7 L35.0 84.1 L35.5 83.4 L36.0 82.8 L36.4 82.2 L36.9 81.5 L37.4 80.9 L37.9 80.3 L38.4 79.7 L38.9 79.1 L39.4 78.5 L39.8 77.8 L40.3 77.2 L40.8 76.6 L41.3 76.0 L41.8 75.4 L42.3 74.9 L42.8 74.3 L43.2 73.7 L43.7 73.1 L44.2 72.6 L44.7 72.0 L45.2 71.5 L45.7 70.9 L46.2 70.4 L46.7 69.9 L47.1 69.4 L47.6 68.8 L48.1 68.4 L48.6 67.9 L49.1 67.4 L49.6 66.9 L50.1 66.5 L50.6 66.0 L51.1 65.6 L51.6 65.2 L52.1 64.8 L52.6 64.4 L53.1 64.0 L53.6 63.6 L54.1 63.2 L54.6 62.9 L55.1 62.6 L55.6 62.2 L56.1 61.9 L56.6 61.6 L57.1 61.3 L57.6 61.1 L58.2 60.8 L58.7 60.6 L59.2 60.3 L59.7 60.1 L60.2 59.9 L60.7 59.7 L61.3 59.6 L61.8 59.4 L62.3 59.2 L62.4 59.2 L70.3 43.5 L67.9 43.5 L67.1 43.5 L66.9 43.5 L66.1 43.5 L65.9 43.6 L65.1 43.6 L64.9 43.6 L64.2 43.7 L64.0 43.7 L63.2 43.8 L63.0 43.8 L62.2 43.9 L62.0 44.0 L61.3 44.1 L61.1 44.1 L60.4 44.3 L60.2 44.3 L59.4 44.5 L59.2 44.5 L58.5 44.7 L58.3 44.8 L57.6 45.0 L57.4 45.0 L56.7 45.3 L56.5 45.3 L55.8 45.6 L55.7 45.6 L55.0 45.9 L54.8 45.9 L54.1 46.2 L54.0 46.3 L53.3 46.6 L53.1 46.6 L52.5 46.9 L52.3 47.0 L51.6 47.3 L51.5 47.4 L50.8 47.7 L50.7 47.8 L50.0 48.1 L49.9 48.2 L49.3 48.6 L49.1 48.6 L48.5 49.0 L48.4 49.1 L47.7 49.5 L47.6 49.6 L47.0 50.0 L46.9 50.0 L46.2 50.5 L46.1 50.5 L45.5 51.0 L45.4 51.0 L44.8 51.5 L44.7 51.5 L44.1 52.0 L44.0 52.1 L43.4 52.5 L43.3 52.6 L42.7 53.1 L42.6 53.1 L42.0 53.6 L42.0 53.7 L41.4 54.2 L41.3 54.2 L40.7 54.7 L40.6 54.8 L40.1 55.3 L40.0 55.4 L39.4 55.9 L39.4 56.0 L38.8 56.5 L38.7 56.6 L38.2 57.1 L38.1 57.2 L37.6 57.7 L37.5 57.8 L37.0 58.3 L36.9 58.4 L36.4 58.9 L36.3 59.0 L35.8 59.5 L35.7 59.6 L35.2 60.2 L35.2 60.2 L34.6 60.8 L34.6 60.8 L34.0 61.4 L34.0 61.5 L33.5 62.1 L33.4 62.1 L32.9 62.7 L32.9 62.7 L32.4 63.3 L32.3 63.4 L31.8 64.0 L31.8 64.0 L31.3 64.6 L31.2 64.6 L30.7 65.3 L30.7 65.3 L30.2 65.9 L30.2 65.9 L29.7 66.6 L29.7 66.6 L29.2 67.2 L29.1 67.2 L28.6 67.8 L28.6 67.9 L28.1 68.5 L28.1 68.5 L27.6 69.1 L27.6 69.2 L27.1 69.8 L27.1 69.8 L26.6 70.4 L26.6 70.4 L26.1 71.1 L26.1 71.1 L25.6 71.7 L25.6 71.7 L25.1 72.3 L24.6 73.0 L24.1 73.6 L23.6 74.2 L23.1 74.8 L22.7 75.5 L22.2 76.1 L21.7 76.7 L21.2 77.3 L20.8 77.9 L20.3 78.5 L19.8 79.1 L19.4 79.6 L18.9 80.2 L18.4 80.8 L18.0 81.3 L17.5 81.8 L17.1 82.4 L16.6 82.9 L16.1 83.4 L15.7 83.9 L15.2 84.4 L14.8 84.9 L14.3 85.4 L13.9 85.8 L13.4 86.3 L13.0 86.7 L12.6 87.2 L12.1 87.6 L11.7 88.0 L11.3 88.4 L10.8 88.7 L10.4 89.1 L10.0 89.4 L9.5 89.8 L9.1 90.1 L8.7 90.4 L8.3 90.7 L7.9 90.9 L7.5 91.2 L7.1 91.4 L6.7 91.7 L6.3 91.9 L5.9 92.1 L5.5 92.3 L5.1 92.4 L4.7 92.6 L4.3 92.7 L3.9 92.9 L3.5 93.0 L3.1 93.1 L2.8 93.2 L2.4 93.3 L2.0 93.3 L1.6 93.4 L1.2 93.4 L0.8 93.5 L0.4 93.5 L-0.1 93.5 L-16.9 93.8 L-24.4 108.9 L0.1 108.5 L0.8 108.5 Z"/><path fill="#FFFFFF" d="M0.8 129.5 L1.0 129.5 L1.7 129.4 L1.9 129.4 L2.5 129.4 L2.8 129.4 L3.4 129.3 L3.7 129.3 L4.3 129.2 L4.5 129.1 L5.1 129.0 L5.4 129.0 L6.0 128.8 L6.2 128.8 L6.8 128.6 L7.0 128.6 L7.6 128.4 L7.9 128.3 L8.5 128.2 L8.7 128.1 L9.3 127.9 L9.5 127.8 L10.1 127.6 L10.2 127.5 L10.8 127.3 L11.0 127.2 L11.6 127.0 L11.8 126.9 L12.3 126.6 L12.5 126.5 L13.1 126.2 L13.3 126.1 L13.8 125.8 L14.0 125.8 L14.5 125.4 L14.7 125.4 L15.2 125.0 L15.4 124.9 L15.9 124.6 L16.1 124.5 L16.6 124.1 L16.7 124.1 L17.3 123.7 L17.4 123.6 L17.9 123.2 L18.1 123.1 L18.6 122.7 L18.7 122.6 L19.2 122.2 L19.3 122.1 L19.9 121.7 L20.0 121.6 L20.5 121.2 L20.6 121.1 L21.1 120.7 L21.2 120.6 L21.7 120.1 L21.8 120.1 L22.3 119.6 L22.4 119.5 L22.9 119.1 L22.9 119.0 L23.4 118.5 L23.5 118.4 L24.0 117.9 L24.1 117.9 L24.6 117.4 L24.6 117.3 L25.1 116.8 L25.2 116.7 L25.7 116.2 L25.7 116.1 L26.2 115.6 L26.3 115.6 L26.8 115.0 L26.8 115.0 L27.3 114.4 L27.4 114.4 L27.9 113.8 L27.9 113.8 L28.4 113.2 L28.4 113.2 L28.9 112.6 L28.9 112.6 L29.4 112.0 L29.5 111.9 L30.0 111.4 L30.0 111.3 L30.5 110.7 L30.5 110.7 L31.0 110.1 L31.0 110.1 L31.5 109.5 L31.5 109.5 L32.0 108.9 L32.0 108.8 L32.5 108.2 L32.5 108.2 L33.0 107.6 L33.0 107.6 L33.5 107.0 L33.5 107.0 L34.0 106.3 L34.0 106.3 L34.5 105.7 L34.5 105.7 L35.0 105.1 L35.5 104.4 L36.0 103.8 L36.4 103.2 L36.9 102.5 L37.4 101.9 L37.9 101.3 L38.4 100.7 L38.9 100.1 L39.4 99.5 L39.8 98.8 L40.3 98.2 L40.8 97.6 L41.3 97.0 L41.8 96.4 L42.3 95.9 L42.8 95.3 L43.2 94.7 L43.7 94.1 L44.2 93.6 L44.7 93.0 L45.2 92.5 L45.7 91.9 L46.2 91.4 L46.5 91.1 L59.2 65.6 L58.5 65.7 L58.3 65.8 L57.6 66.0 L57.4 66.0 L56.7 66.3 L56.5 66.3 L55.8 66.6 L55.7 66.6 L55.0 66.9 L54.8 66.9 L54.1 67.2 L54.0 67.3 L53.3 67.6 L53.1 67.6 L52.5 67.9 L52.3 68.0 L51.6 68.3 L51.5 68.4 L50.8 68.7 L50.7 68.8 L50.0 69.1 L49.9 69.2 L49.3 69.6 L49.1 69.6 L48.5 70.0 L48.4 70.1 L47.7 70.5 L47.6 70.6 L47.0 71.0 L46.9 71.0 L46.2 71.5 L46.1 71.5 L45.5 72.0 L45.4 72.0 L44.8 72.5 L44.7 72.5 L44.1 73.0 L44.0 73.1 L43.4 73.5 L43.3 73.6 L42.7 74.1 L42.6 74.1 L42.0 74.6 L42.0 74.7 L41.4 75.2 L41.3 75.2 L40.7 75.7 L40.6 75.8 L40.1 76.3 L40.0 76.4 L39.4 76.9 L39.4 77.0 L38.8 77.5 L38.7 77.6 L38.2 78.1 L38.1 78.2 L37.6 78.7 L37.5 78.8 L37.0 79.3 L36.9 79.4 L36.4 79.9 L36.3 80.0 L35.8 80.5 L35.7 80.6 L35.2 81.2 L35.2 81.2 L34.6 81.8 L34.6 81.8 L34.0 82.4 L34.0 82.5 L33.5 83.1 L33.4 83.1 L32.9 83.7 L32.9 83.7 L32.4 84.3 L32.3 84.4 L31.8 85.0 L31.8 85.0 L31.3 85.6 L31.2 85.6 L30.7 86.3 L30.7 86.3 L30.2 86.9 L30.2 86.9 L29.7 87.6 L29.7 87.6 L29.2 88.2 L29.1 88.2 L28.6 88.8 L28.6 88.9 L28.1 89.5 L28.1 89.5 L27.6 90.1 L27.6 90.2 L27.1 90.8 L27.1 90.8 L26.6 91.4 L26.6 91.4 L26.1 92.1 L26.1 92.1 L25.6 92.7 L25.6 92.7 L25.1 93.3 L24.6 94.0 L24.1 94.6 L23.6 95.2 L23.1 95.8 L22.7 96.5 L22.2 97.1 L21.7 97.7 L21.2 98.3 L20.8 98.9 L20.3 99.5 L19.8 100.1 L19.4 100.6 L18.9 101.2 L18.4 101.8 L18.0 102.3 L17.5 102.8 L17.1 103.4 L16.6 103.9 L16.1 104.4 L15.7 104.9 L15.2 105.4 L14.8 105.9 L14.3 106.4 L13.9 106.8 L13.4 107.3 L13.0 107.7 L12.6 108.2 L12.1 108.6 L11.7 109.0 L11.3 109.4 L10.8 109.7 L10.4 110.1 L10.0 110.4 L9.5 110.8 L9.1 111.1 L8.7 111.4 L8.3 111.7 L7.9 111.9 L7.5 112.2 L7.1 112.4 L6.7 112.7 L6.3 112.9 L5.9 113.1 L5.5 113.3 L5.1 113.4 L4.7 113.6 L4.3 113.7 L3.9 113.9 L3.5 114.0 L3.1 114.1 L2.8 114.2 L2.4 114.3 L2.0 114.3 L1.6 114.4 L1.2 114.4 L0.8 114.5 L0.4 114.5 L-0.1 114.5 L-27.5 114.9 L-35.0 130.1 L0.1 129.5 L0.8 129.5 Z"/><g transform="translate(98.1 97.7)"><path fill="#FFFFFF" d="M28.067397771726537 0.840341250650495Q23.94972564353911 0.840341250650495 20.50432651587208 -0.9243753757155446Q18.65557576444099 -1.7647166263660397 17.22699563833515 -3.025228502341782V0.0H4.537842753512673V-61.008774797225946H17.39506388846525V-38.23552690459753Q18.82364401457109 -39.32797053044317 20.50432651587208 -40.08427765602862Q23.94972564353911 -41.68092603226456 28.067397771726537 -41.68092603226456Q33.865752401214955 -41.68092603226456 38.3615780921951 -38.907799905117926Q42.85740378317525 -36.13467377797129 45.420444597659255 -31.344728649263466Q47.98348541214327 -26.554783520555645 47.98348541214327 -20.42029239080703Q47.98348541214327 -14.285801261058417 45.420444597659255 -9.495856132350594Q42.85740378317525 -4.705911003642773 38.3615780921951 -1.9327848764961388Q33.865752401214955 0.840341250650495 28.067397771726537 0.840341250650495ZM25.798476394970198 -10.756368008326337Q28.487568397051785 -10.756368008326337 30.5464044611455 -12.01687988430208Q32.60524052523921 -13.277391760277823 33.7817182761499 -15.462279011969109Q34.958196027060595 -17.647166263660395 34.958196027060595 -20.42029239080703Q34.958196027060595 -23.277452643018712 33.7817182761499 -25.46233989471Q32.60524052523921 -27.64722714640129 30.5464044611455 -28.865721959844507Q28.487568397051785 -30.084216773287725 25.7984763949702 -30.084216773287725Q23.109384392888614 -30.084216773287725 21.008531266262377 -28.865721959844507Q18.90767813963614 -27.64722714640129 17.77321745125797 -25.46233989471Q16.6387567628798 -23.277452643018712 16.6387567628798 -20.420292390807028Q16.6387567628798 -17.563132138595346 17.815234513790493 -15.37824488690406Q18.99171226470119 -13.193357635212774 21.050548328794903 -11.974862821769555Q23.109384392888614 -10.756368008326337 25.798476394970198 -10.756368008326337Z M54.538147167217126 0.0V-40.84058478161406H67.3953683021697V0.0ZM61.00877479722594 -46.47087116097238Q57.98354629488416 -46.47087116097238 56.0087443558555 -48.52970722506609Q54.03394241682683 -50.5885432891598 54.03394241682683 -53.52973766643654Q54.03394241682683 -56.55496616877832 56.0087443558555 -58.57178517033951Q57.98354629488416 -60.5886041719007 61.00877479722594 -60.5886041719007Q64.03400329956773 -60.5886041719007 65.96678817606386 -58.57178517033951Q67.89957305256 -56.55496616877832 67.89957305256 -53.52973766643654Q67.89957305256 -50.5885432891598 65.96678817606386 -48.52970722506609Q64.03400329956773 -46.47087116097238 61.00877479722594 -46.47087116097238Z M76.47105380919506 0.0V-61.008774797225946H89.32827494414762V0.0Z M98.40396045117298 0.0V-61.008774797225946H111.26118158612555V0.0Z M140.50505710876277 0.9243753757155446Q133.86636122862387 0.9243753757155446 128.69826253712333 -1.8067336888985643Q123.53016384562278 -4.537842753512673 120.58896946834605 -9.411822007285545Q117.6477750910693 -14.285801261058417 117.6477750910693 -20.42029239080703Q117.6477750910693 -26.554783520555645 120.54695240581353 -31.386745711795992Q123.44612972055774 -36.21870790303634 128.40414309939564 -38.99183403018297Q133.36215647823357 -41.764960157329604 139.58068173304724 -41.764960157329604Q145.6311387377308 -41.764960157329604 150.25301561630852 -39.15990228031307Q154.87489249488624 -36.554844403296535 157.52196743443528 -31.932967524718812Q160.16904237398435 -27.31109064614109 160.16904237398435 -21.344667766522576Q160.16904237398435 -20.252224140676933 160.04299118638679 -19.033729327233715Q159.91693999878922 -17.815234513790497 159.580803498529 -16.218586137554556L130.3369279758918 -16.134552012489507Q130.58903035108693 -15.21017663677396 131.09323510147723 -14.369835386123466Q132.35374697745297 -11.764777509106931 134.7487195418069 -10.378214445533615Q137.1436921061608 -8.991651381960297 140.42102298369772 -8.991651381960297Q143.4462514860395 -8.991651381960297 145.88324111292593 -10.042077945273416Q148.3202307398124 -11.092504508586535 150.16898149124347 -13.193357635212774L157.22784799670762 -6.134491129748614Q154.20261949436585 -2.605057877016535 149.91687911604834 -0.8403412506504951Q145.6311387377308 0.9243753757155446 140.50505710876277 0.9243753757155446ZM130.3369279758918 -24.958135144319705 148.15216248968227 -25.042169269384754Q147.90006011448713 -26.218647020295446 147.47988948916188 -27.22705652107604Q146.4714799883813 -29.49597789783238 144.49667804935262 -30.714472711275597Q142.52187611032397 -31.932967524718812 139.6647158581123 -31.932967524718812Q136.6394873557705 -31.932967524718812 134.4125830415467 -30.546404461145496Q132.18567872732288 -29.15984139757218 131.0092009764122 -26.638817645620694Q130.58903035108693 -25.88251052003525 130.3369279758918 -24.958135144319705Z M179.2447887637506 0.0 161.9337590003504 -40.84058478161406H175.79938963608356L184.5389386428487 -15.54631313703416L193.27848764961385 -40.84058478161406H206.89201591015188L189.58098614675168 0.0Z M231.6820828043415 0.9243753757155446Q225.04338692420257 0.9243753757155446 219.87528823270202 -1.8067336888985643Q214.70718954120147 -4.537842753512673 211.76599516392474 -9.411822007285545Q208.824800786648 -14.285801261058417 208.824800786648 -20.42029239080703Q208.824800786648 -26.554783520555645 211.72397810139222 -31.386745711795992Q214.62315541613643 -36.21870790303634 219.58116879497436 -38.99183403018297Q224.53918217381226 -41.764960157329604 230.75770742862593 -41.764960157329604Q236.8081644333095 -41.764960157329604 241.43004131188724 -39.15990228031307Q246.05191819046496 -36.554844403296535 248.698993130014 -31.932967524718812Q251.34606806956307 -27.31109064614109 251.34606806956307 -21.344667766522576Q251.34606806956307 -20.252224140676933 251.22001688196548 -19.033729327233715Q251.0939656943679 -17.815234513790497 250.75782919410773 -16.218586137554556L221.5139536714705 -16.134552012489507Q221.76605604666565 -15.21017663677396 222.27026079705593 -14.369835386123466Q223.5307726730317 -11.764777509106931 225.9257452373856 -10.378214445533615Q228.3207178017395 -8.991651381960297 231.59804867927645 -8.991651381960297Q234.62327718161822 -8.991651381960297 237.06026680850465 -10.042077945273416Q239.49725643539108 -11.092504508586535 241.3460071868222 -13.193357635212774L248.40487369228634 -6.134491129748614Q245.37964518994454 -2.605057877016535 241.09390481162703 -0.8403412506504951Q236.8081644333095 0.9243753757155446 231.6820828043415 0.9243753757155446ZM221.5139536714705 -24.958135144319705 239.329188185261 -25.042169269384754Q239.07708581006585 -26.218647020295446 238.6569151847406 -27.22705652107604Q237.64850568396 -29.49597789783238 235.67370374493134 -30.714472711275597Q233.69890180590266 -31.932967524718812 230.84174155369098 -31.932967524718812Q227.8165130513492 -31.932967524718812 225.5896087371254 -30.546404461145496Q223.36270442290157 -29.15984139757218 222.18622667199088 -26.638817645620694Q221.76605604666565 -25.88251052003525 221.5139536714705 -24.958135144319705Z M284.5395474702576 0.0V-23.277452643018712Q284.5395474702576 -26.470749395490596 282.56474553122894 -28.44555133451926Q280.5899435922003 -30.42035327354792 277.5647150898585 -30.42035327354792Q275.46386196323226 -30.42035327354792 273.86721358699634 -29.5379949603649Q272.2705652107604 -28.655636647181883 271.34618983504487 -27.016971208413416Q270.4218144593293 -25.378305769644953 270.4218144593293 -23.277452643018712V0.0H257.56459332437674V-40.84058478161406H270.4218144593293V-37.64728802914218Q271.7663604603701 -38.823765780052874 273.4470429616711 -39.748141155768415Q277.1445444645333 -41.68092603226456 281.85045546817605 -41.68092603226456Q286.38829822168873 -41.68092603226456 289.8757144118883 -39.538055843105795Q293.36313060208784 -37.39518565394703 295.37994960364904 -33.86575240121495Q297.3967686052102 -30.336319148482872 297.3967686052102 -26.134612895230397V0.0Z M311.4304674910735 0.0V-29.916148523157624H302.18671373391805V-40.84058478161406H311.4304674910735V-57.73144391968901H324.28768862602607V-40.84058478161406H333.5314423831815V-29.916148523157624H324.28768862602607V0.0Z M354.0357688990536 1.0084095007805942Q350.4223015212565 1.0084095007805942 346.93488533105693 0.08403412506504959Q343.4474691408574 -0.840341250650495 340.4642577010481 -2.56304081448401Q337.4810462612388 -4.2857403783175245 335.3801931346126 -6.5546617550738615L342.6911620152719 -13.949664760798218Q344.7079810168331 -11.764777509106931 347.4811071439798 -10.546282695663713Q350.2542332711264 -9.327787882220495 353.5315641486633 -9.327787882220495Q355.8004855254196 -9.327787882220495 357.01898033886283 -10.000060882740891Q358.23747515230605 -10.672333883261288 358.23747515230605 -11.84881163417198Q358.23747515230605 -13.361425885342872 356.7668779636677 -14.159750073460842Q355.29628077502935 -14.958074261578812 353.027359398273 -15.588330199566684Q350.75843802151667 -16.218586137554556 348.2374142695652 -16.974893263140004Q345.7163905176137 -17.731200388725448 343.4474691408574 -19.075746389766238Q341.17854776410104 -20.42029239080703 339.74996763799516 -22.81526495516094Q338.3213875118893 -25.210237519514852 338.3213875118893 -28.90773902237703Q338.3213875118893 -32.85734290043436 340.33820651345053 -35.75652021517857Q342.35502551501173 -38.655697529922776 346.0525270178739 -40.33638003122377Q349.75002852073607 -42.017062532524754 354.70804189957397 -42.017062532524754Q359.91815765360707 -42.017062532524754 364.3299492195222 -40.210328843626186Q368.7417407854373 -38.403595154727626 371.5148669125839 -34.87416190199555L364.2038980319246 -27.47915889627119Q362.27111315542845 -29.748080273027526 359.87614059107455 -30.67245564874307Q357.48116802672064 -31.596831024458616 355.2122466499643 -31.596831024458616Q353.027359398273 -31.596831024458616 351.93491577242736 -30.966575086470744Q350.8424721465817 -30.336319148482872 350.8424721465817 -29.15984139757218Q350.8424721465817 -27.899329521596435 352.27105227268754 -27.14302239601099Q353.69963239879337 -26.386715270425547 355.9685537755497 -25.7984763949702Q358.23747515230605 -25.210237519514852 360.7584989042575 -24.36989626886436Q363.27952265620905 -23.529555018213863 365.5484440329654 -22.10097489210802Q367.81736540972173 -20.672394766002178 369.24594553582756 -18.277422201648267Q370.6745256619334 -15.882449637294357 370.6745256619334 -12.01687988430208Q370.6745256619334 -6.050457004683564 366.17869997095323 -2.521023751951485Q361.6828742799731 1.0084095007805942 354.0357688990536 1.0084095007805942Z"/></g></svg>